<svg width="140" height="30" viewBox="0 0 140 30" fill="none" xmlns="http://www.w3.org/2000/svg">
<path d="M25.5207 27.8168C24.8432 28.5947 24.1154 29.1468 23.3375 29.473C22.5596 29.8243 21.6186 30 20.5144 30C19.059 30 17.9046 29.6989 17.0514 29.0966C16.2233 28.4693 15.6838 27.4153 15.4329 25.9348L14.7553 22.1706C14.4291 20.3388 14.0276 18.9962 13.5508 18.143C13.0991 17.2647 12.3338 16.8256 11.2547 16.8256H8.80803V25.4831C8.80803 26.4366 8.87076 27.1267 8.99624 27.5533C9.1468 27.9799 9.41029 28.2685 9.7867 28.4191C10.1631 28.5696 10.7779 28.67 11.6311 28.7202V29.473C10.276 29.3977 8.38143 29.3601 5.9473 29.3601C3.26223 29.3601 1.2798 29.3977 0 29.473V28.7202C0.828105 28.67 1.43036 28.5696 1.80678 28.4191C2.20828 28.2685 2.47177 27.9799 2.59724 27.5533C2.7478 27.1267 2.82309 26.4366 2.82309 25.4831V6.81305C2.82309 5.85947 2.7478 5.16939 2.59724 4.74279C2.47177 4.31619 2.20828 4.0276 1.80678 3.87704C1.43036 3.72647 0.828105 3.6261 0 3.57591V2.82309C1.2798 2.89837 3.18695 2.93601 5.72146 2.93601L9.89962 2.89837C10.4015 2.87328 10.9787 2.86073 11.6311 2.86073C15.0941 2.86073 17.6913 3.42535 19.4228 4.55458C21.1794 5.68381 22.0577 7.30238 22.0577 9.41029C22.0577 11.192 21.4053 12.7604 20.1004 14.1154C18.7955 15.4705 16.6374 16.3237 13.6261 16.675C15.8846 16.8758 17.5659 17.3651 18.67 18.143C19.7742 18.921 20.4893 20.0878 20.8156 21.6437L21.6813 25.5207C21.8821 26.5245 22.1079 27.2271 22.3588 27.6286C22.6349 28.0301 23.0113 28.2309 23.4881 28.2309C23.7892 28.2058 24.0402 28.1305 24.2409 28.005C24.4668 27.8795 24.7177 27.6662 24.9937 27.3651L25.5207 27.8168ZM11.1418 3.57591C10.4642 3.57591 9.96236 3.66374 9.63614 3.8394C9.33501 4.01506 9.12171 4.32873 8.99624 4.78043C8.87076 5.23212 8.80803 5.90966 8.80803 6.81305V16.0728H10.4266C12.4843 16.0728 13.8896 15.5333 14.6424 14.4542C15.4203 13.3501 15.8093 11.8068 15.8093 9.82434C15.8093 7.76662 15.4454 6.21079 14.7177 5.15684C13.99 4.10289 12.798 3.57591 11.1418 3.57591Z" fill="#3B3B3B"/>
<path d="M36.7522 26.9134C38.8099 26.9134 40.4661 25.9097 41.7208 23.9021L42.3983 24.128C41.8965 25.7591 40.9931 27.1518 39.6882 28.3061C38.4084 29.4354 36.8024 30 34.8701 30C32.2101 30 30.0897 29.1593 28.5088 27.478C26.9529 25.7716 26.175 23.2622 26.175 19.9498C26.175 16.5621 27.0157 13.9774 28.697 12.1957C30.3783 10.389 32.6116 9.48557 35.3971 9.48557C40.1148 9.48557 42.4736 12.271 42.4736 17.8419H31.8965C31.8714 18.2183 31.8588 18.808 31.8588 19.611C31.8588 21.2673 32.0847 22.6474 32.5364 23.7516C33.0132 24.8557 33.6154 25.6587 34.3431 26.1606C35.096 26.6625 35.899 26.9134 36.7522 26.9134ZM35.1712 10.276C34.2679 10.276 33.515 10.8407 32.9128 11.9699C32.3356 13.074 31.9717 14.793 31.8212 17.1267H37.7308C37.781 15.1443 37.5803 13.5132 37.1286 12.2334C36.702 10.9285 36.0495 10.276 35.1712 10.276Z" fill="#3B3B3B"/>
<path d="M52.1062 9.48557C53.0598 9.48557 53.9381 9.61104 54.7411 9.86198C55.5441 10.0878 56.1589 10.3513 56.5855 10.6524C56.8365 10.8281 57.0623 10.9159 57.2631 10.9159C57.4889 10.9159 57.6771 10.803 57.8277 10.5772C58.0033 10.3262 58.1163 9.97491 58.1665 9.52321H58.9569C58.8565 10.803 58.8064 13.0113 58.8064 16.1481H58.0159C57.79 14.4918 57.2882 13.1117 56.5103 12.0075C55.7574 10.8783 54.6533 10.3137 53.1978 10.3137C52.445 10.3137 51.8176 10.527 51.3158 10.9536C50.839 11.3802 50.6006 11.9699 50.6006 12.7227C50.6006 13.5759 50.8892 14.3162 51.4663 14.9435C52.0435 15.5458 52.9469 16.2861 54.1765 17.1644L55.2681 17.9548C56.7988 19.1092 57.9281 20.138 58.6558 21.0414C59.3835 21.9448 59.7474 23.074 59.7474 24.4291C59.7474 25.5332 59.4212 26.5119 58.7687 27.3651C58.1414 28.2183 57.2882 28.8708 56.2091 29.3225C55.1301 29.7742 53.9381 30 52.6332 30C51.253 30 50.0736 29.7365 49.0949 29.2095C48.2919 28.808 47.7148 28.5445 47.3634 28.4191C47.1125 28.3438 46.8867 28.4316 46.6859 28.6826C46.5103 28.9084 46.3722 29.2597 46.2719 29.7365H45.4814C45.5818 28.3061 45.632 25.7967 45.632 22.2083H46.4224C46.9243 26.8256 48.6182 29.1343 51.504 29.1343C52.2317 29.1343 52.8465 28.921 53.3484 28.4944C53.8754 28.0427 54.1389 27.3651 54.1389 26.4617C54.1389 25.7591 53.9757 25.1317 53.6495 24.5797C53.3484 24.0276 52.9594 23.5383 52.4826 23.1117C52.0059 22.6851 51.2907 22.0954 50.3371 21.3425C49.2079 20.4391 48.3421 19.7114 47.7399 19.1593C47.1627 18.6073 46.6608 17.9548 46.2342 17.202C45.8327 16.4492 45.632 15.6085 45.632 14.6801C45.632 13.074 46.2593 11.8068 47.514 10.8783C48.7687 9.94981 50.2995 9.48557 52.1062 9.48557Z" fill="#3B3B3B"/>
<path d="M69.6814 10.0125H74.1231V10.7654H69.6814V25.9724C69.6814 26.7252 69.8069 27.2647 70.0578 27.591C70.3339 27.8921 70.7605 28.0427 71.3376 28.0427C72.4167 28.0427 73.2699 27.2898 73.8972 25.7842L74.5371 26.123C73.5835 28.7077 71.8646 30 69.3803 30C67.7241 30 66.4694 29.5734 65.6162 28.7202C65.0892 28.1932 64.7253 27.5408 64.5246 26.7629C64.3489 25.9599 64.2611 24.8683 64.2611 23.4881V10.7654H61.0992V10.0125H64.2611V5.04391C66.3439 5.04391 68.1507 4.64241 69.6814 3.8394V10.0125Z" fill="#3B3B3B"/>
<path d="M84.8379 9.48557C87.7237 9.48557 89.9822 10.3137 91.6133 11.9699C93.2444 13.601 94.0599 16.1982 94.0599 19.7616C94.0599 23.325 93.2444 25.9222 91.6133 27.5533C89.9822 29.1844 87.7237 30 84.8379 30C81.9771 30 79.7187 29.1844 78.0625 27.5533C76.4313 25.9222 75.6158 23.325 75.6158 19.7616C75.6158 16.1982 76.4313 13.601 78.0625 11.9699C79.7187 10.3137 81.9771 9.48557 84.8379 9.48557ZM84.8379 10.2384C83.7588 10.2384 82.8931 11.0289 82.2406 12.6098C81.6133 14.1656 81.2996 16.5496 81.2996 19.7616C81.2996 22.9737 81.6133 25.3576 82.2406 26.9134C82.8931 28.4693 83.7588 29.2472 84.8379 29.2472C85.942 29.2472 86.8078 28.4818 87.4351 26.9511C88.0625 25.3952 88.3761 22.9987 88.3761 19.7616C88.3761 16.5245 88.0499 14.128 87.3975 12.5721C86.7701 11.0163 85.9169 10.2384 84.8379 10.2384Z" fill="#3B3B3B"/>
<path d="M115.164 26.7252C115.565 27.3275 115.892 27.7792 116.143 28.0803C116.394 28.3563 116.72 28.5571 117.121 28.6826V29.473C115.114 29.3726 113.796 29.3225 113.169 29.3225C112.341 29.3225 110.722 29.3726 108.313 29.473V28.6826C108.665 28.6826 108.941 28.6198 109.141 28.4944C109.342 28.3689 109.443 28.1932 109.443 27.9674C109.443 27.8419 109.38 27.6537 109.254 27.4028L105.528 20.665C105.277 20.2384 105.013 19.9498 104.737 19.7992C104.461 19.6487 104.11 19.5483 103.683 19.4981V25.9724C103.683 27.0013 103.847 27.7164 104.173 28.1179C104.499 28.4944 105.089 28.6826 105.942 28.6826V29.473C103.432 29.3726 101.801 29.3225 101.049 29.3225C100.195 29.3225 98.4639 29.3726 95.8541 29.473V28.6826C96.7324 28.6826 97.3472 28.4944 97.6985 28.1179C98.0749 27.7164 98.2631 27.0013 98.2631 25.9724V4.51694C98.2631 3.36261 98.0749 2.52196 97.6985 1.99498C97.3472 1.46801 96.7324 1.20452 95.8541 1.20452V0.414054C96.6571 0.489335 97.435 0.526976 98.1878 0.526976C100.371 0.526976 102.203 0.351317 103.683 0V18.7829C104.185 18.7327 104.612 18.6324 104.963 18.4818C105.34 18.3312 105.666 18.1054 105.942 17.8043L108.803 15.0188C109.631 14.1907 110.045 13.4253 110.045 12.7227C110.045 12.1455 109.781 11.6939 109.254 11.3676C108.727 11.0163 108.025 10.8156 107.146 10.7654V10.0125C108.527 10.0878 109.995 10.1255 111.55 10.1255C113.633 10.1255 115.101 10.0878 115.954 10.0125V10.7654C114.474 11.0916 112.906 12.0577 111.249 13.6637L108.84 16.1481L115.164 26.7252Z" fill="#3B3B3B"/>
<path d="M136.806 25.3701C136.806 26.5245 136.982 27.3651 137.333 27.8921C137.71 28.4191 138.337 28.6826 139.215 28.6826V29.473C138.437 29.3977 137.659 29.3601 136.881 29.3601C134.698 29.3601 132.866 29.5358 131.386 29.8871V26.4994C130.232 28.8331 128.211 30 125.326 30C123.444 30 122.076 29.5107 121.223 28.532C120.821 28.0552 120.52 27.4404 120.319 26.6876C120.144 25.9097 120.056 24.8934 120.056 23.6386V14.1154C120.056 12.9611 119.868 12.1205 119.491 11.5935C119.14 11.0665 118.525 10.803 117.647 10.803V10.0125C118.425 10.0878 119.203 10.1255 119.981 10.1255C122.164 10.1255 123.996 9.94981 125.476 9.5985V25.1819C125.476 26.2359 125.627 27.0263 125.928 27.5533C126.254 28.0803 126.856 28.3438 127.735 28.3438C128.738 28.3438 129.592 27.9297 130.294 27.1016C131.022 26.2484 131.386 25.207 131.386 23.9774V14.1154C131.386 12.9611 131.198 12.1205 130.821 11.5935C130.47 11.0665 129.855 10.803 128.977 10.803V10.0125C129.78 10.0878 130.558 10.1255 131.311 10.1255C133.494 10.1255 135.326 9.94981 136.806 9.5985V25.3701Z" fill="#3B3B3B"/>
</svg>